<svg xmlns="http://www.w3.org/2000/svg" width="100" height="100" fill="none" xmlns:v="https://vecta.io/nano"><style><![CDATA[.B{color-interpolation-filters:sRGB}.C{flood-opacity:0}]]></style><g filter="url(#B)"><path d="M50 12c23.196 0 42 18.804 42 42a41.8 41.8 0 0 1-6.856 23H14.856A41.8 41.8 0 0 1 8 54c0-23.196 18.804-42 42-42z" fill="#d9d9d9"/></g><mask id="A" fill="#fff"><path d="M50 17c20.08 0 36.357 16.279 36.357 36.358 0 3.338-.452 6.571-1.295 9.642H14.938c-.842-3.071-1.295-6.303-1.295-9.642C13.643 33.279 29.92 17 50 17z"/></mask><path d="M50 17c20.08 0 36.357 16.279 36.357 36.358 0 3.338-.452 6.571-1.295 9.642H14.938c-.842-3.071-1.295-6.303-1.295-9.642C13.643 33.279 29.92 17 50 17z" fill="#272727"/><path d="M50 17v-4h0v4zm36.357 36.358h4 0-4zM85.063 63v4h3.05l.807-2.942L85.063 63zm-70.125 0l-3.857 1.058.807 2.942h3.05v-4zm-1.295-9.642h-4 0 4zM50 17v4c17.871 0 32.357 14.488 32.357 32.358h4 4C90.357 31.07 72.289 13 50 13v4zm36.357 36.358h-4c0 2.975-.403 5.852-1.152 8.583L85.063 63l3.857 1.058c.936-3.411 1.438-6.999 1.438-10.7h-4zM85.063 63v-4H14.938v4 4h70.125v-4zm-70.125 0l3.857-1.058c-.749-2.731-1.152-5.608-1.152-8.583h-4-4c0 3.701.502 7.29 1.438 10.7L14.938 63zm-1.295-9.642h4C17.643 35.488 32.13 21 50 21v-4-4C27.711 13 9.643 31.07 9.643 53.358h4z" fill="#121212" mask="url(#A)"/><path d="M49.982 26.437a26.4 26.4 0 0 1 26.395 26.395c0 .775-.729 1.326-1.486 1.159l-2.731-.602c-1.66-.366-2.808-1.843-3.066-3.524-1.428-9.272-9.44-16.372-19.112-16.372s-17.69 7.104-19.115 16.38c-.258 1.68-1.405 3.158-3.065 3.524l-2.721.6c-.761.168-1.493-.386-1.493-1.165 0-14.577 11.817-26.395 26.394-26.395z" fill="url(#E)"/><path d="M45.611 51.317c1.141 1.144 2.615 1.705 4.422 1.682s3.138-.679 3.994-1.968l13.207-19.867c.605-.91-.48-1.992-1.389-1.385L46.039 43.021c-1.284.858-1.961 2.169-2.031 3.934s.464 3.218 1.603 4.363z" fill="#d9d9d9"/><circle cx="49.502" cy="47.5" r="2.5" fill="#474545"/><g filter="url(#C)"><circle cx="23" cy="69" r="3" fill="#f5f3f3"/></g><g filter="url(#D)"><circle cx="31" cy="69" r="3" fill="#f5f3f3"/></g><defs><filter id="B" x="8" y="12" width="84" height="70" filterUnits="userSpaceOnUse" class="B"><feFlood result="A" class="C"/><feColorMatrix in="SourceAlpha" values="0 0 0 0 0 0 0 0 0 0 0 0 0 0 0 0 0 0 127 0" result="B"/><feOffset dy="5"/><feComposite in2="B" operator="out"/><feColorMatrix values="0 0 0 0 0.528846 0 0 0 0 0.528846 0 0 0 0 0.528846 0 0 0 1 0"/><feBlend in2="A"/><feBlend in="SourceGraphic"/></filter><filter id="C" x="20" y="66" width="6" height="7" filterUnits="userSpaceOnUse" class="B"><feFlood result="A" class="C"/><feColorMatrix in="SourceAlpha" values="0 0 0 0 0 0 0 0 0 0 0 0 0 0 0 0 0 0 127 0" result="B"/><feOffset dy="1"/><feComposite in2="B" operator="out"/><feColorMatrix values="0 0 0 0 0.528846 0 0 0 0 0.528846 0 0 0 0 0.528846 0 0 0 1 0"/><feBlend in2="A"/><feBlend in="SourceGraphic"/></filter><filter id="D" x="28" y="66" width="6" height="7" filterUnits="userSpaceOnUse" class="B"><feFlood result="A" class="C"/><feColorMatrix in="SourceAlpha" values="0 0 0 0 0 0 0 0 0 0 0 0 0 0 0 0 0 0 127 0" result="B"/><feOffset dy="1"/><feComposite in2="B" operator="out"/><feColorMatrix values="0 0 0 0 0.528846 0 0 0 0 0.528846 0 0 0 0 0.528846 0 0 0 1 0"/><feBlend in2="A"/><feBlend in="SourceGraphic"/></filter><linearGradient id="E" x1="65.184" y1="51.431" x2="47.095" y2="35.026" gradientUnits="userSpaceOnUse"><stop stop-color="#ff6767"/><stop offset="1" stop-color="#0096e2"/></linearGradient></defs></svg>