<svg xmlns="http://www.w3.org/2000/svg" width="491" height="309" fill="none" xmlns:v="https://vecta.io/nano"><path d="M368.346 219.391a54.27 54.27 0 0 1 11.112-9.348 26.48 26.48 0 0 0-4.994-.929c-3.384-.255-4.869.55-5.502 1.183-.627.633-1.432 2.112-1.184 5.502.089 1.083.273 2.284.568 3.592zm91.139 48.782l1.047 2.165c2.816 6.035 4.68 11.94 5.083 17.241.396 5.272-.628 10.768-4.615 14.756s-9.485 5.011-14.762 4.615c-4.615-.355-9.686-1.811-14.91-4.041h-.018c-.919-.391-1.83-.799-2.733-1.225-12.028-5.692-25.79-15.702-38.706-28.624-12.904-12.904-22.909-26.654-28.607-38.671-.432-.917-.846-1.834-1.236-2.739l.006-.012c-2.243-5.236-3.704-10.324-4.053-14.951-.403-5.278.621-10.768 4.615-14.762 3.982-3.988 9.478-5.011 14.756-4.615 5.301.402 11.194 2.266 17.235 5.088.733.338 1.467.693 2.206 1.065 8.94-2.264 18.315-2.166 27.206.284s16.993 7.168 23.511 13.691c6.527 6.521 11.246 14.625 13.696 23.52s2.546 18.272.279 27.215zm-6.585 15.341c-2.592 4.096-5.729 7.82-9.325 11.07 1.29.296 2.479.485 3.55.562 3.39.261 4.876-.544 5.503-1.183.639-.627 1.443-2.112 1.183-5.502-.146-1.674-.451-3.331-.911-4.947zm-82.696 9.23a53.21 53.21 0 0 1-13.502-22.834c-2.5-8.63-2.775-17.752-.798-26.516 6.402 11.715 16.004 24.258 27.689 35.943 11.697 11.697 24.246 21.3 35.973 27.707a53.2 53.2 0 0 1-26.522-.795 53.22 53.22 0 0 1-22.84-13.505z" fill="url(#A)" fill-opacity=".09"/><path d="M146.888 157.921l-5.437 2.294-.077.039c-3.724 1.606-7.992 3.441-12.649 5.154-9.376 3.472-20.596 6.577-33.054 6.577-13.865 0-24.496-3.716-33.015-7.8-3.288-1.576-6.34-3.251-9.024-4.719l-2.08-1.147c-3.289-1.774-5.843-3.052-8.122-3.771-8.931-2.742-18.139-4.478-27.455-5.177-3.697-.291-7.405-.414-11.112-.367l-.589.023h-.161l-1.162.061c4.367 15.19 13.33 28.655 25.658 38.545s27.417 15.719 43.192 16.687 31.463-2.973 44.908-11.281a76.51 76.51 0 0 0 30.179-35.118zM9.466 91.133l2.271 2.31.023.031.145.138.658.62a63.04 63.04 0 0 0 2.753 2.371c2.447 1.988 6.08 4.665 10.737 7.342 9.323 5.384 22.553 10.676 38.468 10.676 10.508 0 18.553-3.013 25.375-6.577 2.715-1.422 5.162-2.883 7.594-4.336l2.103-1.246c2.998-1.775 6.195-3.58 9.438-4.696 8.393-2.9 17.097-4.807 25.933-5.682a85.99 85.99 0 0 1 8.834-.398c-6.553-12.145-16.27-22.291-28.121-29.361a76.46 76.46 0 0 0-39.195-10.797c-13.694-.004-27.138 3.669-38.927 10.637A76.46 76.46 0 0 0 9.466 91.133z" fill="url(#B)" fill-opacity=".09"/><path opacity=".5" d="M151.237 144.197c1.149-5.322 1.726-10.753 1.72-16.198.009-8.337-1.348-16.619-4.015-24.519l-4.03-.29h-.084l-.39-.023c-2.798-.048-5.597.062-8.382.329a102.29 102.29 0 0 0-23.303 5.124c-2.011.688-4.306 1.927-7.327 3.709l-1.896 1.132c-2.463 1.476-5.277 3.158-8.321 4.741-7.877 4.123-17.766 7.885-30.683 7.885-18.492 0-33.704-6.141-44.204-12.206-4.292-2.468-8.384-5.271-12.236-8.381a71.97 71.97 0 0 1-3.671-3.174C.406 113.666-.898 125.786.606 137.72l2.944-.153h.084l.206-.008c1.147-.045 2.294-.061 3.442-.046a133.5 133.5 0 0 1 9.583.421c7.931.612 18.714 2.118 30.002 5.674 3.441 1.079 6.875 2.853 10.149 4.627l2.287 1.247c2.646 1.453 5.331 2.929 8.313 4.359 7.495 3.594 16.397 6.661 28.052 6.661 10.577 0 20.358-2.631 29.077-5.858 4.367-1.606 8.405-3.35 12.167-4.971l.138-.054c3.633-1.56 7.166-3.082 10.271-4.114l3.916-1.308z" fill="url(#C)" fill-opacity=".09"/><path fill-rule="evenodd" d="M387.749 51.526C387.749 23.068 410.817 0 439.275 0c10.96 0 21.115 3.421 29.468 9.254-3.706 4.658-6.155 10.189-7.113 16.063s-.392 11.897 1.643 17.491 5.471 10.572 9.979 14.458 9.939 6.551 15.772 7.739c-5.926 21.919-25.959 38.047-49.749 38.047a51.96 51.96 0 0 1-9.625-.896 34.78 34.78 0 0 0-5.402-37.474c-4.423-5.057-10.217-8.724-16.681-10.559a34.78 34.78 0 0 0-19.741.221c-.051-.939-.077-1.878-.077-2.818zm72.137 20.61a5.15 5.15 0 0 1-5.153 5.153c-1.367 0-2.677-.543-3.644-1.509s-1.509-2.277-1.509-3.643.543-2.677 1.509-3.643 2.277-1.509 3.644-1.509a5.15 5.15 0 0 1 5.153 5.153zm-28.34-25.763a12.88 12.88 0 0 0 12.882-12.882 12.88 12.88 0 0 0-12.882-12.882 12.88 12.88 0 0 0-12.881 12.882 12.88 12.88 0 0 0 12.881 12.882z" fill="url(#D)" fill-opacity=".09"/><path d="M468.902 30.917c0-6.343 2.179-12.165 5.827-16.777 5.809 5.491 10.257 12.262 12.989 19.774a51.39 51.39 0 0 1 2.753 23.498c-6.094-1.263-11.566-4.587-15.494-9.413a27.06 27.06 0 0 1-6.075-17.081zm-46.848 69.19c-8.32-2.959-15.743-8.003-21.557-14.65s-9.826-14.674-11.651-23.315l.572-.191a27.05 27.05 0 0 1 29.008 7.819 27.05 27.05 0 0 1 6.464 14.304c.694 5.302-.2 10.691-2.568 15.486l-.268.546z" fill="url(#E)" fill-opacity=".09"/><defs><linearGradient id="A" x1="410.147" y1="197.231" x2="410.147" y2="308.35" href="#F"><stop stop-color="#fff"/><stop offset="1" stop-color="#fff" stop-opacity="0"/></linearGradient><linearGradient id="B" x1="74.919" y1="51.525" x2="74.919" y2="204.464" href="#F"><stop stop-color="#fff"/><stop offset="1" stop-color="#fff" stop-opacity="0"/></linearGradient><linearGradient id="C" x1="76.479" y1="102.326" x2="76.479" y2="160.502" href="#F"><stop stop-color="#fff"/><stop offset="1" stop-color="#fff" stop-opacity="0"/></linearGradient><linearGradient id="D" x1="438.386" y1="0" x2="438.386" y2="103.052" href="#F"><stop stop-color="#fff"/><stop offset="1" stop-color="#fff" stop-opacity="0"/></linearGradient><linearGradient id="E" x1="439.83" y1="14.14" x2="439.83" y2="100.106" href="#F"><stop stop-color="#fff"/><stop offset="1" stop-color="#fff" stop-opacity="0"/></linearGradient><linearGradient id="F" gradientUnits="userSpaceOnUse"/></defs></svg>